<?xml version="1.0" encoding="UTF-8" standalone="no"?>
<svg xmlns:svg="http://www.w3.org/2000/svg" xmlns="http://www.w3.org/2000/svg" width="37.396671mm" height="34.34837mm" viewBox="0 0 37.396671 34.34837" version="1.1">
<g transform="translate(1.2395026,-265.15885)"><g><path d="m 33.271742,282.34982 -8.210813,14.22155 H 8.6393042 L 0.42849159,282.34982 8.6393042,268.12828 H 25.060929 Z" style="opacity:1;fill:none;fill-opacity:1;stroke:#666666;stroke-width:1.15699995;stroke-linecap:butt;stroke-linejoin:miter;stroke-miterlimit:4;stroke-dasharray:none;stroke-opacity:1;paint-order:normal" /><path d="m 10.054089,268.15894 a 1.3945827,1.3945827 0 0 1 -1.3945832,1.39458 1.3945827,1.3945827 0 0 1 -1.3945827,-1.39458 1.3945827,1.3945827 0 0 1 1.3945827,-1.39459 1.3945827,1.3945827 0 0 1 1.3945832,1.39459 z" style="opacity:1;fill:#666666;fill-opacity:1;stroke:#666666;stroke-width:1.21099997;stroke-linecap:butt;stroke-linejoin:round;stroke-miterlimit:4;stroke-dasharray:none;stroke-opacity:1;paint-order:normal" /><path d="m 26.425182,268.18256 a 1.3945827,1.3945827 0 0 1 -1.394582,1.39458 1.3945827,1.3945827 0 0 1 -1.394583,-1.39458 1.3945827,1.3945827 0 0 1 1.394583,-1.39459 1.3945827,1.3945827 0 0 1 1.394582,1.39459 z" style="opacity:1;fill:#666666;fill-opacity:1;stroke:#666666;stroke-width:1.21099997;stroke-linecap:butt;stroke-linejoin:round;stroke-miterlimit:4;stroke-dasharray:none;stroke-opacity:1;paint-order:normal" /><path d="m 34.551668,282.3685 a 1.3945827,1.3945827 0 0 1 -1.394583,1.39458 1.3945827,1.3945827 0 0 1 -1.394582,-1.39458 1.3945827,1.3945827 0 0 1 1.394582,-1.39458 1.3945827,1.3945827 0 0 1 1.394583,1.39458 z" style="opacity:1;fill:#666666;fill-opacity:1;stroke:#666666;stroke-width:1.21099997;stroke-linecap:butt;stroke-linejoin:round;stroke-miterlimit:4;stroke-dasharray:none;stroke-opacity:1;paint-order:normal" /> <path d="m 10.095428,296.50714 a 1.3945827,1.3945827 0 0 1 -1.3945823,1.39458 1.3945827,1.3945827 0 0 1 -1.3945827,-1.39458 1.3945827,1.3945827 0 0 1 1.3945827,-1.39458 1.3945827,1.3945827 0 0 1 1.3945823,1.39458 z" style="opacity:1;fill:#666666;fill-opacity:1;stroke:#666666;stroke-width:1.21099997;stroke-linecap:butt;stroke-linejoin:round;stroke-miterlimit:4;stroke-dasharray:none;stroke-opacity:1;paint-order:normal" /> <path d="M 33.108013,282.4004 8.6528509,268.185 8.7196683,296.54063 25.064077,268.23127" style="fill:none;fill-rule:evenodd;stroke:#666666;stroke-width:0.465;stroke-linecap:butt;stroke-linejoin:miter;stroke-miterlimit:4;stroke-dasharray:none;stroke-opacity:1" /></g></g>
</svg>
